<svg width="334" height="302" viewBox="0 0 334 302" fill="none" xmlns="http://www.w3.org/2000/svg">
<path d="M23.0633 185.312C23.0633 174.932 8.35443 149.272 1 137.739C5.20253 131.972 18.0203 129.954 35.6709 168.012C34.9705 153.957 32.0987 123.251 26.2152 112.871C29.2855 109.999 35.6036 109.37 40.5953 123.683C45.2925 120.982 55.6829 122.774 61.8132 149.345C69.3851 146.957 86.2846 168.672 88.2025 204.266C132.358 219.371 151.397 256.623 155.443 273.97V301H110.266C111.947 267.267 68.9409 238.651 47.2278 228.56C43.8658 213.855 29.7173 193.601 23.0633 185.312Z" fill="#9C5D42"/>
<path d="M176.456 301V273.97C175.059 245.232 214.64 217.803 244.747 202.444C243.386 170.45 270.837 143.712 271.013 150.713C273.534 123.035 284.671 121.161 289.924 123.683C293.286 107.249 303.932 111.79 308.835 116.115C305.473 118.71 299.03 151.794 296.228 168.012C312.197 127.359 327.397 130.891 333 137.739C327.957 134.279 313.388 168.012 306.734 185.312C300.851 190.501 288.873 216.306 283.62 228.56C223.104 263.158 217.08 291.269 221.633 301H176.456Z" fill="#9C5D42"/>
<path d="M76.6456 230.722C76.6456 225.532 64.038 214.144 57.7342 209.098C28.3165 188.339 30.7679 176.662 35.6709 173.418C37.9251 170.171 47.3333 175.281 57.7342 182.608M57.7342 182.608C54.7337 180.445 47.3785 151.794 44.0759 137.739C43.0522 131.944 41.8668 127.329 40.5953 123.683M57.7342 182.608C62.9994 186.317 68.519 190.594 73.4937 194.643M40.5953 123.683C35.6036 109.37 29.2855 109.999 26.2152 112.871C32.0987 123.251 34.9705 153.957 35.6709 168.012C18.0203 129.954 5.20253 131.972 1 137.739C8.35443 149.272 23.0633 174.932 23.0633 185.312C29.7173 193.601 43.8658 213.855 47.2278 228.56C68.9409 238.651 111.947 267.267 110.266 301H155.443V273.97C151.397 256.623 132.358 219.371 88.2025 204.266M40.5953 123.683C45.6078 120.8 57.1038 123.035 62.9873 155.038L73.4937 194.643M73.4937 194.643C77.0125 197.507 80.2587 200.257 82.9494 202.611C84.7386 203.128 86.4895 203.68 88.2025 204.266M61.4537 149.48C68.8353 146.259 86.2536 168.097 88.2025 204.266M256.304 228.56C261.557 221.521 273.534 207.125 279.418 205.855C289.574 197.926 307.995 180.338 300.43 173.418C297.575 170.851 288.622 170.268 273.114 183.436M289.924 123.683C293.286 107.249 303.932 111.79 308.835 116.115C305.473 118.71 299.03 151.795 296.228 168.012C312.197 127.359 327.397 130.891 333 137.739C327.957 134.279 313.388 168.012 306.734 185.312C300.851 190.501 288.873 216.306 283.62 228.56C223.104 263.158 217.08 291.269 221.633 301H176.456V273.97C175.059 245.232 214.64 217.803 244.747 202.444M289.924 123.683L273.114 183.436M289.924 123.683C284.671 121.161 273.534 123.035 271.013 150.713M273.114 183.436C269.6 186.42 265.749 190.11 261.557 194.643C260.438 195.107 259.276 195.6 258.076 196.124M271.013 150.713C267.291 165.129 259.494 194.394 258.076 196.124M271.013 150.713C270.837 143.712 243.386 170.45 244.747 202.444M258.076 196.124C254 197.903 249.491 200.023 244.747 202.444" stroke="black"/>
<path d="M175.394 164.862L111.687 97.0559L136.653 66.9198H196.056L221.883 97.0559L160.759 164.862" stroke="#6854FC" stroke-width="3"/>
<path d="M112.548 97.499H138.806M221.453 97.499H193.473M178.407 67.363L193.473 97.499M193.473 97.499H138.806M193.473 97.499L166.355 155.112M153.441 67.363L138.806 97.499M138.806 97.499L169.368 155.112" stroke="#6854FC" stroke-width="3"/>
<path d="M60.4629 74.897L89.3033 88.1923M84.5683 35.8974L108.243 60.7153M122.448 9.74991L134.501 39.886M166.785 0V31.9088M210.691 9.74991L197.778 39.886M248.571 35.8974L224.896 60.7153M273.538 74.897L243.406 88.1923" stroke="#6854FC" stroke-width="3"/>
</svg>
