<svg width="305" height="530" viewBox="0 0 305 530" fill="none" xmlns="http://www.w3.org/2000/svg">
<path d="M89.8191 321.261C87.9815 300.044 101.049 255.337 107.813 235.636L201.992 194.339L107.813 422.798L49.2378 392.11L89.8191 321.261Z" fill="#011858" stroke="black"/>
<path d="M118.15 252.305C102.224 225.633 104.113 209.367 107.048 204.567L129.253 214.039C138.134 214.039 161.794 204.946 172.514 200.4L229.94 331.111V418.63H162.56V331.111L118.15 252.305Z" fill="#3D6EF9" stroke="black"/>
<path d="M87.5219 437.574L96.3273 418.251L58.8087 397.792L45.4092 421.282L87.5219 437.574Z" fill="#F3F5FA"/>
<path d="M180.17 445.151L177.49 418.251H222.665L227.642 437.574L180.17 445.151Z" fill="#F3F5FA"/>
<path d="M87.5219 437.574L96.3273 418.251L58.8087 397.792L45.4092 421.282L87.5219 437.574Z" stroke="black"/>
<path d="M180.17 445.151L177.49 418.251H222.665L227.642 437.574L180.17 445.151Z" stroke="black"/>
<path d="M86.7567 438.331C81.7798 442.751 73.9698 454.471 82.5455 465.989C95.4345 471.798 123.28 487.433 131.549 503.497C132.187 505.307 132.4 507.721 131.549 510.134C131.805 517.015 128.64 530.397 113.939 528.881L41.5813 497.056L36.9872 503.497L1 482.659L6.74264 470.535H17.146L43.8784 420.524L86.7567 438.331Z" fill="#1E387F"/>
<path d="M229.174 438.331C227.77 446.54 227.796 462.654 239.128 461.442C255.08 452.981 289.587 441.135 300 461.442C304.664 468.507 307.823 480.926 294.258 487.033C291.702 488.183 288.553 489.109 284.709 489.734L222.666 507.286V513.726L183.616 525.85V513.726L187.621 503.497L179.022 444.772L229.174 438.331Z" fill="#1E387F"/>
<path d="M131.549 510.134C132.4 507.721 132.187 505.307 131.549 503.497C123.28 487.433 95.4345 471.798 82.5455 465.989C73.9698 454.471 81.7798 442.751 86.7567 438.331L43.8784 420.524L17.146 470.535M131.549 510.134C129.848 514.961 123.893 519.788 108.579 519.788C107.047 519.788 46.1754 488.468 15.9309 472.808L17.146 470.535M131.549 510.134C131.805 517.015 128.64 530.397 113.939 528.881L41.5813 497.056L36.9872 503.497L1 482.659L6.74264 470.535H17.146M187.621 503.497L188.593 510.134L273.967 490.615C283.073 490.461 289.636 489.113 294.258 487.033M187.621 503.497L179.022 444.772L229.174 438.331C227.77 446.54 227.796 462.654 239.128 461.442C255.08 452.981 289.587 441.135 300 461.442C304.664 468.507 307.823 480.926 294.258 487.033M187.621 503.497L183.616 513.726V525.85L222.666 513.726V507.286L294.258 487.033" stroke="black"/>
<path d="M139.972 109.85L147.246 63.8933L159.663 61.8919C156.944 61.4106 151.316 55.5137 149.16 52.2619C158.168 36.2963 165.753 47.7015 167.919 53.2849C163.469 72.6265 179.592 92.1302 187.061 98.7495L180.17 121.217C164.55 127.278 146.863 116.165 139.972 109.85Z" fill="#9C5D42"/>
<path d="M211.18 61.7337C209.649 57.4903 211.818 49.8624 213.095 46.5788C201.15 41.4261 197.398 42.6638 197.015 43.9267C194.565 43.3205 192.421 39.6328 191.655 37.8647C187.061 38.1678 184.126 34.4549 183.233 32.5605C170.063 34.6822 175.704 46.5788 180.17 52.2619C175.663 75.1745 184.325 82.2382 189.741 82.9505C201.8 67.1666 213.609 73.1439 218.072 78.6693C227.872 72.9105 217.306 64.1332 211.18 61.7337Z" fill="#9C5D42"/>
<path d="M218.072 88.6335C218.684 84.9964 217.051 83.3293 216.157 82.9505C202.069 74.7668 199.312 81.8139 199.695 86.3603C200.308 93.3316 212.201 90.7805 218.072 88.6335Z" fill="#9C5D42"/>
<path d="M223.049 168.954C219.067 171.682 215.264 171.606 213.86 171.228L217.689 190.55L232.62 184.867L236.831 189.035C241.731 190.55 250.103 185.877 253.676 183.351L252.145 179.563L253.676 178.426L252.145 172.743L253.676 171.228L250.613 166.681L252.145 164.787L247.933 159.104L244.105 162.514C240.736 163.12 237.852 161.503 236.831 160.619L242.191 152.663H236.831L223.049 168.954Z" fill="#9C5D42"/>
<path d="M139.972 109.85L147.246 63.8933L159.663 61.8919C156.944 61.4106 151.316 55.5137 149.16 52.2619C158.168 36.2963 165.753 47.7015 167.919 53.2849C163.469 72.6265 179.592 92.1302 187.061 98.7495L180.17 121.217C164.55 127.278 146.863 116.165 139.972 109.85Z" stroke="black"/>
<path d="M211.18 61.7337C209.649 57.4903 211.818 49.8624 213.095 46.5788C201.15 41.4261 197.398 42.6638 197.015 43.9267C194.565 43.3205 192.421 39.6328 191.655 37.8647C187.061 38.1678 184.126 34.4549 183.233 32.5605C170.063 34.6822 175.704 46.5788 180.17 52.2619C175.663 75.1745 184.325 82.2382 189.741 82.9505C201.8 67.1666 213.609 73.1439 218.072 78.6693C227.872 72.9105 217.306 64.1332 211.18 61.7337Z" stroke="black"/>
<path d="M218.072 88.6335C218.684 84.9964 217.051 83.3293 216.157 82.9505C202.069 74.7668 199.312 81.8139 199.695 86.3603C200.308 93.3316 212.201 90.7805 218.072 88.6335Z" stroke="black"/>
<path d="M223.049 168.954C219.067 171.682 215.264 171.606 213.86 171.228L217.689 190.55L232.62 184.867L236.831 189.035C241.731 190.55 250.103 185.877 253.676 183.351L252.145 179.563L253.676 178.426L252.145 172.743L253.676 171.228L250.613 166.681L252.145 164.787L247.933 159.104L244.105 162.514C240.736 163.12 237.852 161.503 236.831 160.619L242.191 152.663H236.831L223.049 168.954Z" stroke="black"/>
<path d="M123.877 217.715C66.6041 191.042 113.03 134.363 143.402 109.357C147.61 111.186 150.422 113.954 152.116 117.394C162.692 124.088 174.518 122.694 180.553 120.345C193.417 135.5 198.021 157.228 198.149 166.577C203.677 165.671 208.774 164.899 213.08 164.294L218.057 193.846L123.877 217.715Z" fill="#F3F5FA"/>
<path d="M143.402 109.357C113.03 134.363 66.6041 191.042 123.877 217.715L218.057 193.846L213.08 164.294C208.774 164.899 203.677 165.671 198.149 166.577M143.402 109.357C168.517 120.269 143.913 164.673 128.471 185.511C134.563 178.477 171.4 170.958 198.149 166.577M143.402 109.357C155.347 124.815 172.769 123.376 180.553 120.345C193.417 135.5 198.021 157.228 198.149 166.577" stroke="black"/>
<path d="M107.048 204.567C97.8594 230.962 75.042 267.915 57.2781 204.567L59.958 188.276H53.0668C52.684 185.624 52.9902 179.941 57.2781 178.425C52.3011 174.131 47.707 163.422 69.1462 154.935C68.0138 150.341 67.1427 140.893 71.4548 136.07C67.9489 138.647 63.1484 140.286 62.6379 132.961C62.3827 126.141 64.399 111.289 74.506 106.44C75.5269 102.904 77.2625 94.3158 76.0374 88.2538C76.9307 77.3928 83.6943 56.7317 103.602 60.9751C110.366 63.7535 124.276 68.8556 125.807 67.037C131.039 76.5088 140.814 96.7405 138.058 101.893C143.928 99.62 157.353 100.378 164.091 121.595C166.899 134.981 160.11 167.552 130.401 183.616C141.638 166.23 170.306 123.302 142.269 109.736C131.805 118.576 105.669 141.599 101.688 167.059C98.6251 175.899 95.4092 195.778 107.048 204.567Z" fill="#284AA7" stroke="black"/>
<path d="M269.756 129.93L241.808 153.041C240.583 153.041 237.98 158.092 236.831 160.618C238.975 163.346 242.063 163.018 243.339 162.513L275.115 134.476L269.756 129.93Z" fill="#F9A13D" stroke="black"/>
<path d="M192.039 98.8624C202.759 106.743 213.351 95.5788 217.307 89.0117C209.037 92.6489 202.631 90.5272 200.462 89.0117C196.48 76.5847 207.736 79.0348 213.861 81.8132C217.843 84.238 218.583 81.308 218.455 79.54C209.267 65.2944 194.719 75.8775 188.593 82.9498C184.612 82.0405 181.575 76.2564 180.554 73.478C177.185 70.4471 179.15 57.818 180.554 51.8823C169.528 40.9708 176.98 34.4543 182.085 32.5599C187.292 37.7126 190.635 38.243 191.656 37.8641C192.575 40.8951 195.612 43.1683 197.016 43.926C198.547 41.8044 205.566 44.0523 208.884 45.4415C223.585 50.8973 227.516 46.7044 227.643 43.926C230.706 8.76677 205.949 14.6266 193.188 21.9515C191.044 23.1639 187.19 20.436 185.531 18.9205C158.885 -12.6016 150.182 4.5234 149.161 17.0262C144.567 11.2673 135.761 15.8895 131.933 18.9205C127.339 36.5002 137.165 46.957 142.652 49.988C147.246 53.6252 147.629 60.849 147.246 64.0062L159.88 61.733C153.755 60.0444 150.182 54.4623 149.161 51.8823C158.043 37.6368 165.112 45.9467 167.537 51.8823C164.168 72.1898 179.405 91.6638 187.445 98.8624H192.039Z" fill="black" stroke="black"/>
<ellipse cx="208.501" cy="53.7761" rx="2.6799" ry="2.6521" fill="black"/>
<path d="M210.414 44.684C206.203 44.5577 197.704 44.9871 197.397 47.715C203.012 48.4727 213.477 48.9274 210.414 44.684Z" fill="black" stroke="black"/>
</svg>
