<svg width="863" height="267" viewBox="0 0 863 267" fill="none" xmlns="http://www.w3.org/2000/svg">
<rect x="1" y="1" width="1886" height="1046" rx="47" stroke="#9747FF" stroke-width="2" stroke-dasharray="10 5"/>
<g clip-path="url(#clip0_2113_7)">
<path d="M838.044 184.371C837.773 183.35 837.238 182.418 836.493 181.668C835.748 180.919 834.82 180.378 833.8 180.1C830.048 179.091 815.048 179.091 815.048 179.091C815.048 179.091 800.048 179.091 796.295 180.1C795.275 180.378 794.347 180.919 793.602 181.668C792.857 182.418 792.323 183.35 792.051 184.371C791.048 188.14 791.048 196 791.048 196C791.048 196 791.048 203.86 792.051 207.629C792.323 208.65 792.857 209.582 793.602 210.332C794.347 211.081 795.275 211.622 796.295 211.9C800.048 212.909 815.048 212.909 815.048 212.909C815.048 212.909 830.048 212.909 833.8 211.9C834.82 211.622 835.748 211.081 836.493 210.332C837.238 209.582 837.773 208.65 838.044 207.629C839.048 203.86 839.048 196 839.048 196C839.048 196 839.048 188.14 838.044 184.371Z" fill="#FF0302"/>
<path d="M810.139 203.137V188.863L822.684 196L810.139 203.137Z" fill="#FEFEFE"/>
</g>
<g clip-path="url(#clip1_2113_7)">
<path d="M687 191.636V200.931H699.916C699.349 203.92 697.647 206.451 695.094 208.153L702.883 214.196C707.421 210.007 710.04 203.855 710.04 196.546C710.04 194.844 709.887 193.207 709.603 191.637L687 191.636Z" fill="#4285F4"/>
<path d="M673.549 200.568L671.793 201.913L665.574 206.756C669.523 214.589 677.617 220 686.999 220C693.479 220 698.912 217.862 702.883 214.196L695.094 208.153C692.955 209.593 690.228 210.466 686.999 210.466C680.759 210.466 675.457 206.255 673.559 200.582L673.549 200.568Z" fill="#34A853"/>
<path d="M665.574 185.244C663.938 188.473 663 192.116 663 196C663 199.883 663.938 203.527 665.574 206.756C665.574 206.778 673.56 200.56 673.56 200.56C673.08 199.12 672.796 197.593 672.796 196C672.796 194.407 673.08 192.88 673.56 191.44L665.574 185.244Z" fill="#FBBC05"/>
<path d="M687 181.556C690.534 181.556 693.676 182.778 696.185 185.135L703.058 178.262C698.89 174.378 693.48 172 687 172C677.618 172 669.523 177.389 665.574 185.244L673.56 191.44C675.458 185.767 680.76 181.556 687 181.556Z" fill="#EA4335"/>
</g>
<g clip-path="url(#clip2_2113_7)">
<path d="M579.457 172H538.543C537.604 172 536.702 172.373 536.038 173.038C535.373 173.702 535 174.604 535 175.543V216.457C535 217.396 535.373 218.298 536.038 218.962C536.702 219.627 537.604 220 538.543 220H579.457C580.396 220 581.298 219.627 581.962 218.962C582.627 218.298 583 217.396 583 216.457V175.543C583 174.604 582.627 173.702 581.962 173.038C581.298 172.373 580.396 172 579.457 172ZM549.307 212.89H542.09V189.967H549.307V212.89ZM545.693 186.79C544.875 186.785 544.076 186.538 543.397 186.08C542.719 185.622 542.192 184.973 541.882 184.215C541.572 183.458 541.493 182.625 541.656 181.823C541.819 181.021 542.216 180.285 542.796 179.708C543.377 179.131 544.116 178.739 544.919 178.581C545.722 178.423 546.554 178.507 547.31 178.822C548.066 179.137 548.711 179.668 549.165 180.35C549.619 181.031 549.861 181.831 549.86 182.65C549.868 183.198 549.765 183.742 549.558 184.25C549.351 184.757 549.044 185.218 548.655 185.604C548.266 185.99 547.804 186.295 547.295 186.498C546.786 186.702 546.241 186.801 545.693 186.79ZM575.907 212.91H568.693V200.387C568.693 196.693 567.123 195.553 565.097 195.553C562.957 195.553 560.857 197.167 560.857 200.48V212.91H553.64V189.983H560.58V193.16H560.673C561.37 191.75 563.81 189.34 567.533 189.34C571.56 189.34 575.91 191.73 575.91 198.73L575.907 212.91Z" fill="#0A66C2"/>
</g>
<g clip-path="url(#clip3_2113_7)">
<path d="M431 176.322C437.413 176.322 438.172 176.35 440.694 176.462C443.038 176.566 444.303 176.959 445.147 177.288C446.263 177.719 447.069 178.244 447.903 179.078C448.747 179.922 449.263 180.719 449.694 181.834C450.022 182.678 450.416 183.953 450.519 186.287C450.631 188.819 450.659 189.578 450.659 195.981C450.659 202.394 450.631 203.153 450.519 205.675C450.416 208.019 450.022 209.284 449.694 210.128C449.263 211.244 448.737 212.05 447.903 212.884C447.059 213.728 446.263 214.244 445.147 214.675C444.303 215.003 443.028 215.397 440.694 215.5C438.163 215.612 437.403 215.641 431 215.641C424.588 215.641 423.828 215.612 421.306 215.5C418.963 215.397 417.697 215.003 416.853 214.675C415.738 214.244 414.931 213.719 414.097 212.884C413.253 212.041 412.738 211.244 412.306 210.128C411.978 209.284 411.584 208.009 411.481 205.675C411.369 203.144 411.341 202.384 411.341 195.981C411.341 189.569 411.369 188.809 411.481 186.287C411.584 183.944 411.978 182.678 412.306 181.834C412.738 180.719 413.263 179.912 414.097 179.078C414.941 178.234 415.738 177.719 416.853 177.288C417.697 176.959 418.972 176.566 421.306 176.462C423.828 176.35 424.588 176.322 431 176.322ZM431 172C424.484 172 423.669 172.028 421.109 172.141C418.559 172.253 416.806 172.666 415.288 173.256C413.703 173.875 412.363 174.691 411.031 176.031C409.691 177.363 408.875 178.703 408.256 180.278C407.666 181.806 407.253 183.55 407.141 186.1C407.028 188.669 407 189.484 407 196C407 202.516 407.028 203.331 407.141 205.891C407.253 208.441 407.666 210.194 408.256 211.713C408.875 213.297 409.691 214.638 411.031 215.969C412.363 217.3 413.703 218.125 415.278 218.734C416.806 219.325 418.55 219.737 421.1 219.85C423.659 219.962 424.475 219.991 430.991 219.991C437.506 219.991 438.322 219.962 440.881 219.85C443.431 219.737 445.184 219.325 446.703 218.734C448.278 218.125 449.619 217.3 450.95 215.969C452.281 214.638 453.106 213.297 453.716 211.722C454.306 210.194 454.719 208.45 454.831 205.9C454.944 203.341 454.972 202.525 454.972 196.009C454.972 189.494 454.944 188.678 454.831 186.119C454.719 183.569 454.306 181.816 453.716 180.297C453.125 178.703 452.309 177.363 450.969 176.031C449.638 174.7 448.297 173.875 446.722 173.266C445.194 172.675 443.45 172.263 440.9 172.15C438.331 172.028 437.516 172 431 172Z" fill="#000100"/>
<path d="M431 183.672C424.194 183.672 418.672 189.194 418.672 196C418.672 202.806 424.194 208.328 431 208.328C437.806 208.328 443.328 202.806 443.328 196C443.328 189.194 437.806 183.672 431 183.672ZM431 203.997C426.584 203.997 423.003 200.416 423.003 196C423.003 191.584 426.584 188.003 431 188.003C435.416 188.003 438.997 191.584 438.997 196C438.997 200.416 435.416 203.997 431 203.997Z" fill="#000100"/>
<path d="M446.694 183.184C446.694 184.778 445.4 186.063 443.816 186.063C442.222 186.063 440.938 184.769 440.938 183.184C440.938 181.591 442.231 180.306 443.816 180.306C445.4 180.306 446.694 181.6 446.694 183.184Z" fill="#000100"/>
</g>
<path d="M315.653 175.808H322.4L307.659 192.655L325 215.58H311.422L300.788 201.676L288.62 215.58H281.869L297.635 197.56L281 175.808H294.922L304.535 188.516L315.653 175.808ZM313.285 211.541H317.023L292.891 179.634H288.879L313.285 211.541Z" fill="black"/>
<g clip-path="url(#clip4_2113_7)">
<path d="M199 196C199 182.745 188.255 172 175 172C161.745 172 151 182.745 151 196C151 207.255 158.749 216.7 169.203 219.293V203.334H164.254V196H169.203V192.84C169.203 184.671 172.9 180.885 180.919 180.885C182.44 180.885 185.064 181.183 186.137 181.481V188.129C185.571 188.069 184.587 188.04 183.364 188.04C179.429 188.04 177.909 189.531 177.909 193.406V196H185.748L184.401 203.334H177.909V219.824C189.793 218.389 199.001 208.271 199.001 196H199Z" fill="#0866FF"/>
<path d="M184.4 203.334L185.747 196H177.908V193.406C177.908 189.531 179.428 188.04 183.364 188.04C184.586 188.04 185.57 188.069 186.136 188.129V181.481C185.063 181.182 182.439 180.885 180.918 180.885C172.899 180.885 169.202 184.671 169.202 192.84V196H164.253V203.334H169.202V219.293C171.058 219.754 173 220 174.999 220C175.983 220 176.954 219.94 177.907 219.824V203.334H184.399H184.4Z" fill="white"/>
</g>
<defs>
<clipPath id="clip0_2113_7">
<rect width="48" height="48" fill="white" transform="translate(791 172)"/>
</clipPath>
<clipPath id="clip1_2113_7">
<rect width="48" height="48" fill="white" transform="translate(663 172)"/>
</clipPath>
<clipPath id="clip2_2113_7">
<rect width="48" height="48" fill="white" transform="translate(535 172)"/>
</clipPath>
<clipPath id="clip3_2113_7">
<rect width="48" height="48" fill="white" transform="translate(407 172)"/>
</clipPath>
<clipPath id="clip4_2113_7">
<rect width="48" height="48" fill="white" transform="translate(151 172)"/>
</clipPath>
</defs>
</svg>
