<svg width="28" height="28" viewBox="0 0 28 28" fill="none" xmlns="http://www.w3.org/2000/svg">
<path d="M14.0001 0.666687C17.6227 0.666687 18.0747 0.68002 19.4961 0.746687C20.9161 0.813354 21.8827 1.03602 22.7334 1.36669C23.6134 1.70535 24.3547 2.16402 25.0961 2.90402C25.7741 3.57055 26.2987 4.37681 26.6334 5.26669C26.9627 6.11602 27.1868 7.08402 27.2534 8.50402C27.3161 9.92535 27.3334 10.3774 27.3334 14C27.3334 17.6227 27.3201 18.0747 27.2534 19.496C27.1868 20.916 26.9627 21.8827 26.6334 22.7334C26.2997 23.6237 25.7749 24.4302 25.0961 25.096C24.4294 25.7738 23.6232 26.2984 22.7334 26.6334C21.8841 26.9627 20.9161 27.1867 19.4961 27.2534C18.0747 27.316 17.6227 27.3334 14.0001 27.3334C10.3774 27.3334 9.92542 27.32 8.50408 27.2534C7.08408 27.1867 6.11741 26.9627 5.26675 26.6334C4.37652 26.2993 3.57012 25.7746 2.90408 25.096C2.22596 24.4296 1.70132 23.6233 1.36675 22.7334C1.03608 21.884 0.813415 20.916 0.746748 19.496C0.684081 18.0747 0.666748 17.6227 0.666748 14C0.666748 10.3774 0.680081 9.92535 0.746748 8.50402C0.813415 7.08269 1.03608 6.11735 1.36675 5.26669C1.7004 4.37626 2.22515 3.56978 2.90408 2.90402C3.57031 2.22566 4.37665 1.70099 5.26675 1.36669C6.11741 1.03602 7.08275 0.813354 8.50408 0.746687C9.92542 0.68402 10.3774 0.666687 14.0001 0.666687ZM14.0001 7.33335C12.232 7.33335 10.5363 8.03573 9.28604 9.28598C8.03579 10.5362 7.33342 12.2319 7.33342 14C7.33342 15.7681 8.03579 17.4638 9.28604 18.7141C10.5363 19.9643 12.232 20.6667 14.0001 20.6667C15.7682 20.6667 17.4639 19.9643 18.7141 18.7141C19.9644 17.4638 20.6667 15.7681 20.6667 14C20.6667 12.2319 19.9644 10.5362 18.7141 9.28598C17.4639 8.03573 15.7682 7.33335 14.0001 7.33335ZM22.6667 7.00002C22.6667 6.55799 22.4912 6.13407 22.1786 5.82151C21.866 5.50895 21.4421 5.33335 21.0001 5.33335C20.5581 5.33335 20.1341 5.50895 19.8216 5.82151C19.509 6.13407 19.3334 6.55799 19.3334 7.00002C19.3334 7.44205 19.509 7.86597 19.8216 8.17853C20.1341 8.49109 20.5581 8.66669 21.0001 8.66669C21.4421 8.66669 21.866 8.49109 22.1786 8.17853C22.4912 7.86597 22.6667 7.44205 22.6667 7.00002ZM14.0001 10C15.0609 10 16.0784 10.4214 16.8285 11.1716C17.5787 11.9217 18.0001 12.9392 18.0001 14C18.0001 15.0609 17.5787 16.0783 16.8285 16.8284C16.0784 17.5786 15.0609 18 14.0001 18C12.9392 18 11.9218 17.5786 11.1717 16.8284C10.4215 16.0783 10.0001 15.0609 10.0001 14C10.0001 12.9392 10.4215 11.9217 11.1717 11.1716C11.9218 10.4214 12.9392 10 14.0001 10Z" fill="#6854FC"/>
</svg>
