<svg width="27" height="24" viewBox="0 0 27 24" fill="none" xmlns="http://www.w3.org/2000/svg">
<path d="M6.25326 2.66666C6.2529 3.3739 5.97161 4.05204 5.47126 4.55189C4.97092 5.05173 4.2925 5.33234 3.58526 5.33199C2.87801 5.33164 2.19987 5.05035 1.70003 4.55C1.20018 4.04965 0.919569 3.37124 0.919922 2.66399C0.920276 1.95675 1.20157 1.27861 1.70191 0.778763C2.20226 0.278916 2.88068 -0.00169606 3.58792 -0.00134244C4.29517 -0.000988818 4.9733 0.280302 5.47315 0.780649C5.973 1.281 6.25361 1.95941 6.25326 2.66666V2.66666ZM6.33326 7.30666H0.999922V24H6.33326V7.30666ZM14.7599 7.30666H9.45326V24H14.7066V15.24C14.7066 10.36 21.0666 9.90666 21.0666 15.24V24H26.3333V13.4267C26.3333 5.19999 16.9199 5.50666 14.7066 9.54666L14.7599 7.30666V7.30666Z" fill="#6854FC"/>
</svg>
