<svg width="28" height="22" viewBox="0 0 28 22" fill="none" xmlns="http://www.w3.org/2000/svg">
<path d="M26.7241 3.66398C27.3334 6.03998 27.3334 11 27.3334 11C27.3334 11 27.3334 15.96 26.7241 18.336C26.3854 19.6493 25.3947 20.6826 24.1401 21.032C21.8614 21.6666 14.0001 21.6666 14.0001 21.6666C14.0001 21.6666 6.14275 21.6666 3.86008 21.032C2.60008 20.6773 1.61075 19.6453 1.27608 18.336C0.666748 15.96 0.666748 11 0.666748 11C0.666748 11 0.666748 6.03998 1.27608 3.66398C1.61475 2.35065 2.60541 1.31731 3.86008 0.967979C6.14275 0.333313 14.0001 0.333313 14.0001 0.333313C14.0001 0.333313 21.8614 0.333313 24.1401 0.967979C25.4001 1.32265 26.3894 2.35465 26.7241 3.66398ZM11.3334 15.6666L19.3334 11L11.3334 6.33331V15.6666Z" fill="#6854FC"/>
</svg>
